<svg width="130" height="130" viewBox="0 0 130 130" fill="none" xmlns="http://www.w3.org/2000/svg">
<g clip-path="url(#clip0)">
<rect width="130" height="130" fill="white"/>
<circle cx="65.5" cy="64.5" r="64.5" fill="#8D0101"/>
<path d="M22.1294 110.112C27.627 114.92 34.3556 117.936 41.7007 119.756C43.5365 120.361 55.1678 122.794 63.7441 122.822L64.9692 122.826L66.1944 122.83C74.7706 122.858 87.0302 120.503 88.8699 119.911C95.6143 118.137 102.363 115.165 107.892 110.393C120.179 99.6563 120.234 82.8917 114.153 69.1007C108.076 54.1123 101.381 40.918 92.2353 27.7158C84.9176 17.5132 77.0011 3.11744 65.3619 3.07927C53.7228 3.0411 45.712 17.3846 37.715 27.537C28.485 40.0802 21.7014 53.829 15.5264 68.7773C9.96796 82.5301 9.91299 99.2947 22.1294 110.112Z" fill="black"/>
<path d="M51.6052 65.9857L52.5371 67.358L52.7442 67.663C52.7442 67.663 52.7423 67.8141 52.6368 67.8128C51.8791 69.3147 50.7933 71.7193 50.9656 74.7446C51.1378 77.7699 51.6382 79.8925 52.5682 81.416C53.293 82.4833 54.1311 82.9475 54.8675 83.1081C54.7621 83.1068 54.6546 83.2566 54.5492 83.2552C52.6369 84.2888 50.086 85.7677 49.0825 89.9873C48.7467 91.4945 48.5125 93.3054 48.2783 95.1163C47.81 98.7381 47.2303 102.812 45.7265 104.909C43.5782 107.904 41.0292 109.232 38.1889 108.591C35.454 107.952 32.424 105.645 29.9408 101.835C27.3521 98.0228 25.824 93.7708 25.4523 89.836C25.0826 85.7501 26.0784 82.135 28.2268 79.1394C29.7306 77.0425 31.8538 76.0116 35.2331 75.7525C41.4644 75.2276 43.0088 69.9569 44.0007 66.6442C44.7739 63.9333 44.9965 63.0292 46.8971 62.9023C48.6961 62.4719 50.0519 63.6985 51.6052 65.9857ZM53.2184 63.5879C51.5616 61.1482 49.5864 58.8555 46.5216 59.2698C39.4446 59.935 43.9388 71.4804 34.9612 72.2724C31.6873 72.5328 28.7202 73.553 26.4645 76.6984C20.6659 84.6354 22.3179 95.691 28.1186 104.079C33.9173 112.618 41.5847 115.286 47.2797 107.196C50.18 103.152 50.2767 95.5953 51.286 90.9224C52.6273 85.0445 59.2475 87.0942 59.0143 80.5915C59.022 79.987 58.9223 79.5323 58.7133 79.3784C57.8849 78.1586 55.5275 81.0004 54.1814 79.0181C53.6636 78.2557 53.3646 76.8915 53.1846 74.4707C53.02 70.8408 56.2193 68.161 55.0803 66.4837C54.459 65.5688 53.8377 64.6539 53.2184 63.5879Z" fill="#E27C17"/>
<path d="M48.1729 95.115C48.4071 93.3041 48.6393 91.6444 48.977 89.986C49.9805 85.7664 52.5315 84.2875 54.4437 83.2539C54.5492 83.2552 54.6566 83.1055 54.7621 83.1068C54.0256 82.9462 53.1876 82.482 52.4627 81.4147C51.5308 80.0423 51.0305 77.9197 50.8601 74.7433C50.6878 71.718 51.8771 69.4658 52.5313 67.8115C52.5313 67.8115 52.5333 67.6604 52.6387 67.6617L52.4316 67.3567L51.4997 65.9844C49.9465 63.6972 48.6961 62.4719 46.5846 62.5961C44.7894 62.7242 44.4614 63.627 43.6882 66.3379C42.6943 69.8018 41.2573 74.9227 34.9206 75.4462C31.5412 75.7053 29.418 76.7362 27.9142 78.8331C25.7658 81.8288 24.7701 85.4438 25.1398 89.5297C25.5114 93.4646 27.0376 97.8676 29.6282 101.529C32.217 105.341 35.1415 107.645 37.8763 108.285C40.7166 108.926 43.2656 107.598 45.4139 104.603C47.1268 102.659 47.7065 98.5856 48.1729 95.115Z" fill="#FF9D27"/>
<path d="M41.76 77.6847L44.4175 73.9761L49.5443 81.5224L46.8867 85.2295L41.76 77.6847Z" fill="#8A959B"/>
<path d="M36.6164 84.8849L39.2761 81.1779L44.4007 88.7257L41.741 92.4328L36.6164 84.8849Z" fill="#8A959B"/>
<path d="M33.3928 91.1137L34.9117 88.9957L38.9387 94.9273L37.4188 97.0451L33.3928 91.1137Z" fill="#8A959B"/>
<path d="M51.2337 78.527L46.574 71.6653L73.9383 35.5869L77.1483 40.3138L51.2337 78.527Z" fill="#8A959B"/>
<path d="M44.3784 103.078C45.7183 103.095 46.8244 101.552 46.849 99.6327C46.8736 97.713 45.8073 96.1428 44.4674 96.1257C43.1275 96.1085 42.0213 97.6509 41.9968 99.5706C41.9722 101.49 43.0385 103.061 44.3784 103.078Z" fill="#8A959B"/>
<path d="M38.5324 106.479C39.581 106.493 40.4466 105.286 40.4659 103.783C40.4851 102.281 39.6506 101.052 38.602 101.039C37.5534 101.025 36.6877 102.232 36.6685 103.735C36.6493 105.237 37.4838 106.466 38.5324 106.479Z" fill="#8A959B"/>
<path d="M76.7351 47.8663C75.9832 48.9148 75.6551 49.8175 76.1709 50.731C76.7922 51.6459 77.4329 51.0495 78.1848 50.001C78.9367 48.9526 79.2648 48.0498 78.749 47.1363C78.2312 46.3739 77.4851 46.969 76.7351 47.8663Z" fill="#8A959B"/>
<path d="M75.2407 46.7543L75.9991 45.6954L77.6103 48.068L76.8509 49.1269L75.2407 46.7543Z" fill="#8A959B"/>
<path d="M80.4928 42.7751C79.7409 43.8236 79.4128 44.7263 79.9286 45.6398C80.5499 46.5547 81.1906 45.9583 81.9425 44.9098C82.6944 43.8614 83.0225 42.9586 82.5067 42.0451C81.8834 41.2813 81.1373 41.8764 80.4928 42.7751Z" fill="#8A959B"/>
<path d="M79.0099 41.5831L79.7704 40.5242L81.3806 42.8953L80.6212 43.9542L79.0099 41.5831Z" fill="#8A959B"/>
<path d="M84.145 37.6825C83.3931 38.731 83.065 39.6337 83.5809 40.5473C84.2021 41.4622 84.8428 40.8657 85.5947 39.8173C86.3466 38.7688 86.6747 37.866 86.1589 36.9525C85.5376 36.0376 84.8969 36.634 84.145 37.6825Z" fill="#8A959B"/>
<path d="M82.6315 36.4085L83.391 35.3496L85.0022 37.7222L84.2417 38.7811L82.6315 36.4085Z" fill="#8A959B"/>
<path d="M68.6583 35.9727C67.9064 37.0212 67.2677 37.4665 66.6444 36.7028C66.0231 35.7879 66.4567 34.8865 67.2086 33.838C67.9605 32.7895 68.5992 32.3442 69.2224 33.108C69.7402 33.8704 69.3047 34.9229 68.6583 35.9727Z" fill="#8A959B"/>
<path d="M67.7842 35.7726L68.5447 34.7152L70.1538 37.0893L69.3933 38.1467L67.7842 35.7726Z" fill="#8A959B"/>
<path d="M72.3124 30.729C71.5605 31.7775 70.9218 32.2228 70.2986 31.459C69.6773 30.5442 70.1108 29.6428 70.8627 28.5943C71.6146 27.5458 72.2533 27.1005 72.8766 27.8643C73.3924 28.7778 72.9569 29.8303 72.3124 30.729Z" fill="#8A959B"/>
<path d="M71.5576 30.603L72.3171 29.544L73.9272 31.9166L73.1678 32.9756L71.5576 30.603Z" fill="#8A959B"/>
<path d="M75.9646 25.6365C75.2127 26.685 74.5721 27.2814 73.9508 26.3665C73.3295 25.4516 73.763 24.5502 74.5149 23.5017C75.2669 22.4533 75.9075 21.8568 76.5288 22.7717C77.1501 23.6866 76.7165 24.588 75.9646 25.6365Z" fill="#8A959B"/>
<path d="M75.176 25.4284L75.9365 24.3694L77.5467 26.7405L76.7873 27.7995L75.176 25.4284Z" fill="#8A959B"/>
<path d="M79.1196 42.9087C73.3191 50.9969 71.7097 53.0925 68.2926 48.0606C64.8755 43.0287 66.3813 40.7806 72.1818 32.6924C79.9159 21.9081 79.851 18.733 84.5126 25.4436C89.0669 32.3039 86.8536 32.1244 79.1196 42.9087Z" fill="#8A959B"/>
<path d="M78.2195 30.8046C78.9768 30.8143 79.602 29.9426 79.6159 28.8575C79.6298 27.7724 79.0271 26.8849 78.2698 26.8752C77.5124 26.8655 76.8872 27.7373 76.8734 28.8224C76.8595 29.9075 77.4622 30.7949 78.2195 30.8046Z" fill="#8A959B"/>
<path d="M74.4599 36.047C75.2172 36.0567 75.8424 35.1849 75.8563 34.0998C75.8702 33.0148 75.2675 32.1273 74.5102 32.1176C73.7529 32.1079 73.1277 32.9797 73.1138 34.0647C73.0999 35.1498 73.7026 36.0373 74.4599 36.047Z" fill="#8A959B"/>
<path d="M70.8077 41.1396C71.565 41.1493 72.1902 40.2775 72.2041 39.1924C72.218 38.1073 71.6153 37.2198 70.858 37.2101C70.1006 37.2005 69.4754 38.0722 69.4615 39.1573C69.4477 40.2424 70.0504 41.1299 70.8077 41.1396Z" fill="#8A959B"/>
<path d="M81.9473 36.294C82.7046 36.3037 83.3298 35.4319 83.3437 34.3468C83.3576 33.2617 82.7549 32.3743 81.9976 32.3646C81.2402 32.3549 80.615 33.2266 80.6011 34.3117C80.5872 35.3968 81.1899 36.2843 81.9473 36.294Z" fill="#8A959B"/>
<path d="M79.2502 40.9453C78.7132 41.6942 77.8693 41.6834 77.3515 40.921C76.8338 40.1586 76.8493 38.9495 77.3864 38.2006C77.9234 37.4517 78.7673 37.4625 79.2851 38.2249C79.8028 38.9873 79.7873 40.1964 79.2502 40.9453Z" fill="#8A959B"/>
<path d="M74.5355 46.6289C75.2928 46.6386 75.918 45.7668 75.9319 44.6818C75.9458 43.5967 75.3431 42.7092 74.5858 42.6995C73.8284 42.6898 73.2032 43.5616 73.1893 44.6467C73.1754 45.7317 73.7781 46.6192 74.5355 46.6289Z" fill="#8A959B"/>
<g clip-path="url(#clip1)">
<path d="M66.9032 71.8692C71.2364 73.8473 73.1325 65.0137 73.1325 65.0137C73.1325 65.0137 71.2385 62.4865 72.8621 60.3871C70.628 57.4182 72.0814 56.0453 72.0814 56.0453C74.1468 53.7723 76.8589 52.565 79.621 52.6889C82.3831 52.8129 84.969 54.2579 86.8097 56.7062C87.2173 57.2444 87.5762 57.8338 87.8804 58.4649C87.9971 58.6871 88.0991 58.9137 88.2031 59.1404L88.229 59.2096C88.7625 60.4105 89.1272 61.713 89.3084 63.0652C89.5951 63.8829 90.0189 64.7598 90.804 65.8067C93.5799 69.4987 101.197 64.4893 106.751 71.8735C106.808 71.9492 106.836 72.0514 106.882 72.1418C107.068 72.362 107.265 72.5576 107.444 72.7977C113.959 81.4638 112.618 95.7821 104.444 104.775C96.6817 113.321 85.5546 113.967 78.8737 106.58C78.7566 106.496 78.6373 106.415 78.5431 106.29C78.4038 106.102 78.2974 105.926 78.1662 105.743C78.0617 105.615 77.9503 105.499 77.848 105.368C74.5246 100.945 73.4167 95.7588 74.1992 90.5436C74.4594 88.0575 74.7544 86.1129 73.6649 84.6638C72.277 82.8178 67.7744 84.3995 64.9985 80.7074C60.8432 75.1672 64.1614 70.6209 66.9032 71.8692Z" fill="#C70C2A"/>
<path d="M81.35 68.3571L51.2376 28.3085L46.5655 33.4526L76.6778 73.5037L81.35 68.3571Z" fill="#292F33"/>
<path d="M90.5107 94.563C86.6459 97.6114 86.0142 103.123 86.0693 106.35C86.0936 107.684 84.8807 108.563 83.9539 107.863C78.7898 103.957 74.8222 97.8932 76.4838 87.7144C76.803 85.8744 76.5062 82.3743 72.0396 81.4447C67.5732 80.5127 66.0454 78.403 65.5355 77.4063C65.2433 76.8356 65.0311 75.2845 66.2877 75.2854C67.5422 75.2862 70.5959 76.604 73.5703 72.7461C76.5447 68.8882 77.0845 67.2826 77.2076 66.67C77.3306 66.0574 80.5849 57.5017 82.6902 62.2132C84.4389 66.1291 86.2284 73.7481 93.0693 76.0179C95.8538 76.9401 99.3414 78.8349 100.258 81.2855C101.799 85.4015 98.9734 88.1029 96.5622 89.9072C94.1491 91.7088 90.5107 94.563 90.5107 94.563Z" fill="#F5F8FA"/>
<path d="M85.2787 69.7999L82.503 66.1053L74.7143 74.6745L77.4901 78.3665L85.2787 69.7999ZM94.0638 81.4818L91.2859 77.7897L83.4992 86.359L86.2751 90.051L94.0638 81.4818Z" fill="#292F33"/>
<path d="M96.1697 89.9097L53.3649 33.0841L52.1973 34.3714L95 91.1969L96.1697 89.9097ZM94.2556 92.0138L51.4507 35.1906L50.2832 36.4779L93.0858 93.306L94.2556 92.0138Z" fill="#CCD6DD"/>
<path d="M90.995 92.5436C90.1382 93.4866 90.062 95.0878 90.8256 96.1035C91.5893 97.1192 92.914 97.1786 93.7709 96.2357L98.4449 91.0942C98.8564 90.6385 99.1052 90.0085 99.1369 89.3415C99.1686 88.6745 98.9808 88.0249 98.6143 87.5343L98.6122 87.5342C98.2432 87.0465 97.7264 86.7589 97.1745 86.7341C96.6227 86.7094 96.0808 86.9495 95.667 87.402L90.995 92.5436Z" fill="#292F33"/>
<path d="M84.0353 97.8601C82.885 97.8085 82.006 96.6394 82.0722 95.249C82.1384 93.8586 83.1246 92.7732 84.2749 92.8249C85.4253 92.8765 86.3042 94.0455 86.2381 95.4359C86.1719 96.8264 85.1857 97.9117 84.0353 97.8601Z" fill="#292F33"/>
<path d="M80.9251 101.063C80.9033 101.522 81.0329 101.968 81.2855 102.303C81.5381 102.639 81.8928 102.838 82.2718 102.855C82.6508 102.872 83.0229 102.706 83.3062 102.394C83.5896 102.082 83.7611 101.65 83.7829 101.192C83.8047 100.734 83.675 100.288 83.4225 99.9517C83.1699 99.6158 82.8151 99.4175 82.4362 99.4005C82.0572 99.3835 81.6851 99.5492 81.4017 99.861C81.1183 100.173 80.9469 100.605 80.9251 101.063Z" fill="#292F33"/>
<path d="M41.2027 30.3005C40.763 30.787 40.4974 31.4602 40.4638 32.1727C40.4303 32.8852 40.6317 33.5789 41.0239 34.1021L49.7478 42.113C50.1419 42.6338 50.6938 42.941 51.2831 42.9675C51.8724 42.9939 52.4512 42.7375 52.893 42.2541L57.8823 36.7609C58.322 36.2744 58.5877 35.6012 58.6212 34.8887C58.6547 34.1762 58.4533 33.4825 58.0611 32.9593L52.2931 21.6978C51.8991 21.1769 51.3471 20.8697 50.7578 20.8433C50.1685 20.8168 49.5898 21.0733 49.1479 21.5566L41.2027 30.3005Z" fill="#C70C2A"/>
<path d="M46.7213 44.3916C46.0023 44.3593 45.453 43.6287 45.4943 42.7597C45.5357 41.8907 46.152 41.2124 46.871 41.2446C47.59 41.2769 48.1393 42.0075 48.098 42.8765C48.0566 43.7456 47.4403 44.4239 46.7213 44.3916Z" fill="#66757F"/>
<path d="M44.2022 42.1467C43.4832 42.1144 42.9339 41.3838 42.9752 40.5148C43.0166 39.6458 43.633 38.9674 44.3519 38.9997C45.0709 39.032 45.6202 39.7626 45.5789 40.6316C45.5375 41.5006 44.9212 42.1789 44.2022 42.1467Z" fill="#66757F"/>
<path d="M41.681 39.9016C40.9621 39.8694 40.4127 39.1387 40.4541 38.2697C40.4954 37.4007 41.1118 36.7224 41.8308 36.7546C42.5498 36.7869 43.0991 37.5175 43.0578 38.3865C43.0164 39.2556 42.4 39.9339 41.681 39.9016Z" fill="#66757F"/>
<path d="M58.6618 30.8215C57.9428 30.7892 57.3935 30.0586 57.4348 29.1896C57.4762 28.3206 58.0925 27.6422 58.8115 27.6745C59.5305 27.7068 60.0798 28.4374 60.0385 29.3064C59.9971 30.1754 59.3807 30.8538 58.6618 30.8215Z" fill="#66757F"/>
<path d="M57.0544 27.6209C56.3354 27.5886 55.7861 26.858 55.8275 25.989C55.8688 25.12 56.4852 24.4416 57.2042 24.4739C57.9231 24.5062 58.4725 25.2368 58.4311 26.1058C58.3898 26.9748 57.7734 27.6532 57.0544 27.6209Z" fill="#66757F"/>
<path d="M55.4469 24.4228C54.7279 24.3905 54.1786 23.6599 54.22 22.7909C54.2613 21.9218 54.8777 21.2435 55.5967 21.2758C56.3157 21.308 56.865 22.0387 56.8236 22.9077C56.7823 23.7767 56.1659 24.455 55.4469 24.4228Z" fill="#66757F"/>
</g>
<path d="M59.2961 119L57.6086 119L57.6084 106.203L59.2959 106.203L59.2961 119ZM62.3898 119L62.3897 106.203L66.5733 106.203C67.962 106.203 69.0049 106.49 69.7022 107.065C70.4053 107.639 70.7569 108.488 70.7569 109.613C70.7569 110.211 70.587 110.741 70.2472 111.204C69.9073 111.661 69.4445 112.016 68.8585 112.268C69.5499 112.461 70.0949 112.83 70.4933 113.375C70.8976 113.914 71.0998 114.559 71.0998 115.309C71.0998 116.457 70.7277 117.36 69.9836 118.016C69.2394 118.672 68.1877 119 66.8283 119L62.3898 119ZM64.0773 113.015L64.0773 117.62L66.8635 117.62C67.6486 117.62 68.2668 117.418 68.7179 117.014C69.175 116.604 69.4035 116.041 69.4035 115.326C69.4035 113.785 68.5656 113.015 66.8898 113.015L64.0773 113.015ZM64.0773 111.661L66.6261 111.661C67.3644 111.661 67.9532 111.477 68.3927 111.108C68.838 110.738 69.0606 110.237 69.0606 109.605C69.0606 108.902 68.8555 108.392 68.4454 108.075C68.0352 107.753 67.4112 107.592 66.5733 107.592L64.0772 107.592L64.0773 111.661Z" fill="white"/>
<g style="mix-blend-mode:overlay" opacity="0.5">
<path d="M19.5112 111.928C25.3307 116.947 32.4532 120.096 40.2282 121.997C42.1715 122.629 54.4835 125.169 63.5615 125.199L64.8584 125.203L66.1553 125.208C75.2333 125.237 88.2101 122.78 90.1575 122.161C97.2964 120.309 104.439 117.207 110.292 112.225C123.297 101.016 123.355 83.5134 116.917 69.115C110.484 53.4664 103.397 39.6909 93.7153 25.907C85.969 15.2548 77.5886 0.22493 65.2684 0.184527C52.9482 0.144124 44.4694 15.1187 36.0049 25.7177C26.2354 38.8128 19.0555 53.1666 12.5199 68.7727C6.63689 83.1307 6.57949 100.633 19.5112 111.928Z" fill="black"/>
</g>
</g>
<defs>
<clipPath id="clip0">
<rect width="130" height="130" fill="white"/>
</clipPath>
<clipPath id="clip1">
<rect width="75.0606" height="90.736" fill="white" transform="matrix(-0.998995 -0.0448277 -0.0475305 0.99887 114.832 22.1501)"/>
</clipPath>
</defs>
</svg>
